<svg xmlns="http://www.w3.org/2000/svg" width="24.439" height="14.443" viewBox="0 0 24.439 14.443">
  <path id="Caminho_780" data-name="Caminho 780" d="M12.22,98.725c-4.669,0-8.9,2.533-12.029,6.647a.952.952,0,0,0,0,1.145c3.125,4.119,7.359,6.651,12.029,6.651s8.9-2.533,12.029-6.646a.952.952,0,0,0,0-1.145C21.124,101.258,16.889,98.725,12.22,98.725Zm.335,12.307a5.1,5.1,0,1,1,4.794-4.753A5.121,5.121,0,0,1,12.555,111.032Zm-.155-2.349a2.744,2.744,0,1,1,2.585-2.562A2.752,2.752,0,0,1,12.4,108.682Z" transform="translate(0 -98.725)"/>
</svg>
