<svg xmlns="http://www.w3.org/2000/svg" width="10.869" height="12.422" viewBox="0 0 10.869 12.422">
  <defs>
    <style>
      .cls-1 {
        fill: #d4d4d4;
      }
    </style>
  </defs>
  <path id="Icon_awesome-trash-alt" data-name="Icon awesome-trash-alt" class="cls-1" d="M.776,11.257a1.165,1.165,0,0,0,1.165,1.165H8.928a1.165,1.165,0,0,0,1.165-1.165V3.105H.776Zm6.6-6.211a.388.388,0,0,1,.776,0v5.435a.388.388,0,1,1-.776,0Zm-2.329,0a.388.388,0,0,1,.776,0v5.435a.388.388,0,1,1-.776,0Zm-2.329,0a.388.388,0,0,1,.776,0v5.435a.388.388,0,1,1-.776,0ZM10.481.776H7.57L7.342.323A.582.582,0,0,0,6.82,0H4.047a.575.575,0,0,0-.519.323L3.3.776H.388A.388.388,0,0,0,0,1.165v.776a.388.388,0,0,0,.388.388H10.481a.388.388,0,0,0,.388-.388V1.165A.388.388,0,0,0,10.481.776Z"/>
</svg>
